<svg width="87" height="19" viewBox="0 0 87 19" fill="none" xmlns="http://www.w3.org/2000/svg">
<mask id="mask0_430_933" style="mask-type:luminance" maskUnits="userSpaceOnUse" x="0" y="0" width="87" height="19">
<path d="M86.9696 0.294922H0.146484V18.986H86.9696V0.294922Z" fill="white"/>
</mask>
<g mask="url(#mask0_430_933)">
<path fill-rule="evenodd" clip-rule="evenodd" d="M10.5843 0.345829C8.63242 0.143678 6.66468 0.540936 4.95171 1.48318C3.23874 2.42543 1.86451 3.8663 1.01795 5.60781C0.171454 7.34939 -0.105895 9.30599 0.224147 11.2087C0.554189 13.1116 1.47538 14.8672 2.86103 16.2341C4.24677 17.6012 6.02896 18.5126 7.9627 18.843C9.89637 19.1735 11.8868 18.9068 13.6601 18.0796C15.4335 17.2524 16.9028 15.9055 17.8662 14.2236C18.8296 12.5419 19.2396 10.608 19.0401 8.68768C18.8204 6.55315 17.8597 4.55823 16.3196 3.03886C14.7794 1.51949 12.754 0.568469 10.5843 0.345829ZM10.2764 14.5821C9.22665 14.7207 8.1591 14.5322 7.22383 14.0432C6.28862 13.5542 5.53271 12.7893 5.06234 11.8559C4.5919 10.9226 4.43073 9.86773 4.60146 8.83965C4.77213 7.81156 5.26601 6.86191 6.01387 6.12419C6.76166 5.38639 7.72568 4.89769 8.77052 4.7266C9.81535 4.5555 10.8884 4.71078 11.8389 5.17044C12.7893 5.6301 13.5695 6.37113 14.0697 7.28943C14.5698 8.20767 14.7648 9.25703 14.6272 10.2899C14.4829 11.3762 13.9784 12.3856 13.1919 13.1616C12.4054 13.9375 11.3807 14.4368 10.2764 14.5821ZM24.1213 0.715482C23.7918 0.716273 23.4667 0.78924 23.1695 0.929208C22.8723 1.0691 22.6106 1.27248 22.4033 1.52438C22.1961 1.77635 22.0485 2.07059 21.9715 2.38561C21.8945 2.70069 21.8897 3.02872 21.9578 3.34575C22.1662 4.37297 23.1418 5.07483 24.2046 5.07483H30.372L20.7742 17.5664C20.7031 17.6586 20.6597 17.7685 20.6486 17.8836C20.6376 17.9988 20.6594 18.1147 20.7115 18.2183C20.7637 18.322 20.8441 18.4093 20.9439 18.4705C21.0437 18.5317 21.1588 18.5644 21.2765 18.5649H36.3316C37.3936 18.5649 38.3699 17.8631 38.5783 16.8358C38.6464 16.5188 38.6417 16.1908 38.5647 15.8758C38.4877 15.5608 38.3404 15.2666 38.1333 15.0146C37.9261 14.7626 37.6645 14.5593 37.3674 14.4192C37.0702 14.2792 36.7452 14.206 36.4157 14.2051H28.9012L38.4917 1.72329C38.5634 1.6302 38.6073 1.51927 38.6184 1.40296C38.6296 1.28671 38.6076 1.16968 38.5549 1.06501C38.5022 0.960336 38.4208 0.8722 38.32 0.810448C38.2192 0.748767 38.1029 0.715842 37.9842 0.715482H24.1213ZM84.2806 0.765732C83.7824 0.882336 83.3389 1.1627 83.0247 1.56054C82.7106 1.9583 82.5431 2.44973 82.551 2.95353V10.2117L70.593 0.852574C70.4988 0.779391 70.3859 0.73367 70.2673 0.720802C70.148 0.707862 70.0279 0.728279 69.9201 0.779607C69.8123 0.830936 69.7217 0.911164 69.6577 1.01102C69.5944 1.11094 69.5614 1.2264 69.5614 1.34415V16.3306C69.5535 16.8344 69.721 17.3259 70.0351 17.7238C70.3493 18.1215 70.7921 18.4019 71.291 18.5185C71.6145 18.5884 71.9495 18.5861 72.273 18.5117C72.5958 18.4372 72.897 18.2923 73.1551 18.088C73.4132 17.8836 73.6209 17.6248 73.764 17.3308C73.9071 17.0366 73.9811 16.7148 73.9804 16.3888V9.06789L85.9391 18.4273C86.0333 18.5004 86.1461 18.5461 86.2648 18.559C86.3834 18.5718 86.5041 18.5514 86.6113 18.5002C86.7191 18.4488 86.8104 18.3686 86.8737 18.2687C86.9369 18.169 86.9707 18.0535 86.97 17.9358V2.89465C86.9707 2.56878 86.8967 2.247 86.7536 1.95305C86.6105 1.65902 86.4028 1.40037 86.144 1.19606C85.8859 0.991751 85.5847 0.847039 85.2619 0.772562C84.9391 0.698085 84.6041 0.695785 84.2806 0.765732ZM53.1441 4.65758C58.2022 4.65758 61.9814 7.28642 61.9814 9.63797C61.9814 11.9895 58.2022 14.6184 53.1441 14.6184C48.086 14.6184 44.3061 11.9895 44.3061 9.63797C44.3061 7.28642 48.086 4.65758 53.1441 4.65758ZM53.1441 0.298383C45.8222 0.298383 39.8874 4.47987 39.8874 9.63797C39.8874 14.796 45.8222 18.9775 53.1441 18.9775C60.4653 18.9775 66.4004 14.796 66.4004 9.63797C66.4004 4.47987 60.4653 0.298383 53.1441 0.298383Z" fill="white"/>
</g>
</svg>
