<svg width="174" height="50" viewBox="0 0 174 50" fill="none" xmlns="http://www.w3.org/2000/svg">
<path d="M173.033 44.2334C173.033 46.898 170.818 49.0563 168.079 49.0563H5.92815C3.18965 49.0563 0.966797 46.898 0.966797 44.2334V5.77232C0.966797 3.10902 3.18965 0.943115 5.92815 0.943115H168.077C170.818 0.943115 173.032 3.10902 173.032 5.77232L173.033 44.2334Z" fill="white" fill-opacity="0.01"/>
<path d="M167.556 1.00131C170.539 1.00131 172.967 3.356 172.967 6.24975V43.7498C172.967 46.6435 170.539 48.9982 167.556 48.9982H6.44444C3.46067 48.9982 1.03272 46.6435 1.03272 43.7498V6.24975C1.03272 3.356 3.46067 1.00131 6.44444 1.00131H167.556ZM167.556 -0.000246222H6.44444C2.90161 -0.000246222 0 2.81382 0 6.24975V43.7498C0 47.1857 2.90161 49.9998 6.44444 49.9998H167.556C171.098 49.9998 174 47.1857 174 43.7498V6.24975C174 2.81382 171.098 -0.000246222 167.556 -0.000246222Z" fill="white" fill-opacity="0.14"/>
<path d="M38.8321 24.7302C38.7947 20.7015 42.2335 18.7415 42.3907 18.6502C40.4432 15.8965 37.4246 15.5202 36.3639 15.4902C33.8286 15.2315 31.3694 16.9615 30.078 16.9615C28.7607 16.9615 26.772 15.5152 24.6285 15.5577C21.8703 15.599 19.29 17.1477 17.8748 19.5527C14.9541 24.4565 17.1324 31.6627 19.9305 35.6265C21.3303 37.5677 22.9659 39.7352 25.1067 39.659C27.2012 39.5752 27.9835 38.364 30.511 38.364C33.0153 38.364 33.75 39.659 35.9334 39.6102C38.1812 39.5752 39.5964 37.6602 40.9472 35.7015C42.5647 33.4765 43.2143 31.2852 43.2401 31.1727C43.1873 31.1552 38.8746 29.559 38.8321 24.7302Z" fill="white"/>
<path d="M34.7076 12.8827C35.8341 11.5165 36.6049 9.65773 36.3909 7.77148C34.7605 7.84148 32.7215 8.86523 31.5473 10.2015C30.5084 11.379 29.5804 13.309 29.8202 15.124C31.6517 15.2565 33.5322 14.2277 34.7076 12.8827Z" fill="white"/>
<path d="M69.1428 39.3801H66.2157L64.6123 34.4939H59.0392L57.5118 39.3801H54.6621L60.1837 22.7451H63.5941L69.1428 39.3801ZM64.129 32.4439L62.679 28.1001C62.5256 27.6564 62.2382 26.6114 61.8142 24.9664H61.7626C61.5938 25.6739 61.3218 26.7189 60.948 28.1001L59.5238 32.4439H64.129V32.4439Z" fill="white"/>
<path d="M83.3418 33.2352C83.3418 35.2752 82.7734 36.8877 81.6366 38.0714C80.6184 39.1252 79.3539 39.6514 77.8447 39.6514C76.2155 39.6514 75.0452 39.0839 74.3324 37.9489H74.2809V44.2677H71.533V31.3339C71.533 30.0514 71.4982 28.7352 71.4312 27.3852H73.8478L74.0012 29.2864H74.0528C74.9692 27.8539 76.3599 27.1389 78.2262 27.1389C79.6852 27.1389 80.9032 27.6977 81.8776 28.8164C82.8546 29.9364 83.3418 31.4089 83.3418 33.2352ZM80.5423 33.3327C80.5423 32.1652 80.2716 31.2027 79.7277 30.4452C79.1336 29.6552 78.3357 29.2602 77.3355 29.2602C76.6576 29.2602 76.0415 29.4802 75.4911 29.9139C74.9395 30.3514 74.5786 30.9227 74.4098 31.6302C74.3247 31.9602 74.2822 32.2302 74.2822 32.4427V34.4427C74.2822 35.3152 74.558 36.0514 75.1096 36.6527C75.6613 37.2539 76.3779 37.5539 77.2595 37.5539C78.2945 37.5539 79.1 37.1664 79.6762 36.3939C80.2536 35.6202 80.5423 34.6002 80.5423 33.3327Z" fill="white"/>
<path d="M97.5675 33.2352C97.5675 35.2752 96.9991 36.8877 95.8611 38.0714C94.8441 39.1252 93.5797 39.6514 92.0704 39.6514C90.4413 39.6514 89.271 39.0839 88.5595 37.9489H88.5079V44.2677H85.76V31.3339C85.76 30.0514 85.7252 28.7352 85.6582 27.3852H88.0749L88.2283 29.2864H88.2798C89.1949 27.8539 90.5856 27.1389 92.4532 27.1389C93.911 27.1389 95.129 27.6977 96.1059 28.8164C97.0791 29.9364 97.5675 31.4089 97.5675 33.2352ZM94.7681 33.3327C94.7681 32.1652 94.4961 31.2027 93.9522 30.4452C93.358 29.6552 92.5628 29.2602 91.5613 29.2602C90.8821 29.2602 90.2673 29.4802 89.7156 29.9139C89.164 30.3514 88.8044 30.9227 88.6355 31.6302C88.5518 31.9602 88.5079 32.2302 88.5079 32.4427V34.4427C88.5079 35.3152 88.7838 36.0514 89.3328 36.6527C89.8845 37.2527 90.6011 37.5539 91.4853 37.5539C92.5203 37.5539 93.3258 37.1664 93.9019 36.3939C94.4794 35.6202 94.7681 34.6002 94.7681 33.3327Z" fill="white"/>
<path d="M113.473 34.7147C113.473 36.1297 112.967 37.281 111.95 38.1697C110.832 39.141 109.276 39.626 107.277 39.626C105.432 39.626 103.952 39.281 102.832 38.5897L103.469 36.3685C104.675 37.076 105.999 37.431 107.441 37.431C108.476 37.431 109.282 37.2035 109.86 36.751C110.436 36.2985 110.724 35.691 110.724 34.9335C110.724 34.2585 110.487 33.6897 110.011 33.2285C109.538 32.7672 108.748 32.3385 107.645 31.9422C104.642 30.856 103.141 29.2647 103.141 27.1722C103.141 25.8047 103.667 24.6835 104.72 23.811C105.769 22.9372 107.169 22.501 108.919 22.501C110.48 22.501 111.777 22.7647 112.812 23.291L112.125 25.4635C111.158 24.9535 110.065 24.6985 108.842 24.6985C107.875 24.6985 107.12 24.9297 106.579 25.3897C106.121 25.801 105.892 26.3022 105.892 26.896C105.892 27.5535 106.153 28.0972 106.679 28.5247C107.137 28.9197 107.968 29.3472 109.175 29.8085C110.65 30.3847 111.734 31.0585 112.432 31.831C113.126 32.601 113.473 33.5647 113.473 34.7147Z" fill="white"/>
<path d="M122.558 29.3847H119.529V35.2085C119.529 36.6897 120.063 37.4297 121.133 37.4297C121.624 37.4297 122.031 37.3885 122.353 37.306L122.429 39.3297C121.888 39.526 121.175 39.6247 120.292 39.6247C119.207 39.6247 118.359 39.3035 117.747 38.6622C117.137 38.0197 116.83 36.9422 116.83 35.4285V29.3822H115.026V27.3822H116.83V25.186L119.529 24.396V27.3822H122.558V29.3847Z" fill="white"/>
<path d="M136.224 33.2836C136.224 35.1274 135.68 36.6411 134.595 37.8249C133.457 39.0436 131.946 39.6511 130.063 39.6511C128.248 39.6511 126.804 39.0674 125.726 37.8999C124.649 36.7324 124.11 35.2586 124.11 33.4824C124.11 31.6236 124.664 30.1011 125.776 28.9174C126.886 27.7324 128.384 27.1399 130.267 27.1399C132.082 27.1399 133.542 27.7236 134.644 28.8924C135.698 30.0261 136.224 31.4899 136.224 33.2836ZM133.373 33.3699C133.373 32.2636 133.13 31.3149 132.636 30.5236C132.06 29.5661 131.236 29.0886 130.169 29.0886C129.064 29.0886 128.225 29.5674 127.649 30.5236C127.156 31.3161 126.912 32.2799 126.912 33.4199C126.912 34.5261 127.156 35.4749 127.649 36.2649C128.243 37.2224 129.073 37.6999 130.144 37.6999C131.194 37.6999 132.017 37.2124 132.611 36.2399C133.118 35.4336 133.373 34.4749 133.373 33.3699Z" fill="white"/>
<path d="M145.156 29.7289C144.884 29.6802 144.594 29.6552 144.29 29.6552C143.323 29.6552 142.576 30.0089 142.05 30.7177C141.592 31.3427 141.363 32.1327 141.363 33.0864V39.3802H138.616L138.642 31.1627C138.642 29.7802 138.607 28.5214 138.539 27.3864H140.933L141.033 29.6814H141.109C141.399 28.8927 141.857 28.2577 142.483 27.7814C143.095 27.3527 143.757 27.1389 144.469 27.1389C144.723 27.1389 144.953 27.1564 145.156 27.1877V29.7289Z" fill="white"/>
<path d="M157.445 32.815C157.445 33.2925 157.413 33.695 157.345 34.0237H149.101C149.133 35.2087 149.531 36.115 150.297 36.74C150.992 37.2987 151.89 37.5787 152.993 37.5787C154.214 37.5787 155.328 37.39 156.329 37.0112L156.76 38.8612C155.589 39.3562 154.208 39.6025 152.613 39.6025C150.695 39.6025 149.19 39.055 148.094 37.9612C147.001 36.8675 146.454 35.3987 146.454 33.5562C146.454 31.7475 146.963 30.2412 147.982 29.04C149.049 27.7575 150.492 27.1162 152.306 27.1162C154.089 27.1162 155.438 27.7575 156.355 29.04C157.08 30.0587 157.445 31.3187 157.445 32.815ZM154.825 32.1237C154.843 31.3337 154.664 30.6512 154.291 30.075C153.816 29.3337 153.085 28.9637 152.102 28.9637C151.203 28.9637 150.472 29.325 149.914 30.05C149.457 30.6262 149.185 31.3175 149.101 32.1225H154.825V32.1237Z" fill="white"/>
<path d="M55.2822 16.307V14.9231C55.2822 14.5471 55.4598 14.3382 55.7784 14.3121H55.8462C56.3632 14.0301 56.5512 13.4191 56.6139 12.359L56.8437 8.56769C56.875 8.07158 57.204 7.78958 57.7315 7.78958H61.2146C61.5802 7.78958 61.7995 8.01936 61.7995 8.39536V14.3121H62.186C62.5254 14.3121 62.7395 14.5419 62.7395 14.9022V16.307C62.7395 16.6464 62.5359 16.8762 62.2069 16.8762C61.8779 16.8762 61.669 16.6464 61.669 16.307V15.3252H56.358V16.307C56.358 16.6464 56.1491 16.8762 55.8201 16.8762C55.4964 16.8762 55.2822 16.6464 55.2822 16.307ZM57.1831 14.3121H60.6298V8.79746H57.9299L57.7001 12.4112C57.6427 13.3773 57.5069 13.8839 57.1831 14.2703V14.3121ZM66.0034 15.4296C64.4315 15.4296 63.3975 14.3486 63.3975 12.5783C63.3975 10.8132 64.4367 9.73223 66.0034 9.73223C67.57 9.73223 68.6093 10.8132 68.6093 12.5783C68.6093 14.3486 67.5753 15.4296 66.0034 15.4296ZM66.0034 14.5001C66.8912 14.5001 67.4604 13.8003 67.4604 12.5783C67.4604 11.3616 66.8859 10.6618 66.0034 10.6618C65.1208 10.6618 64.5464 11.3616 64.5464 12.5783C64.5464 13.8003 65.1208 14.5001 66.0034 14.5001ZM71.9306 15.4296C70.3587 15.4296 69.3351 14.3382 69.3351 12.5888C69.3351 10.8498 70.3535 9.73223 71.9201 9.73223C72.9802 9.73223 73.8889 10.2962 74.1291 11.0639C74.1657 11.1527 74.1813 11.2467 74.1813 11.325C74.1813 11.6122 73.9777 11.7898 73.7009 11.7898C73.4607 11.7898 73.3249 11.6958 73.1891 11.4451C72.9071 10.9229 72.5207 10.6722 71.9462 10.6722C71.0585 10.6722 70.484 11.4086 70.484 12.5783C70.484 13.7742 71.0689 14.4844 71.941 14.4844C72.552 14.4844 72.9228 14.2129 73.1891 13.7377C73.3458 13.4661 73.4711 13.3721 73.7113 13.3721C73.9881 13.3721 74.1918 13.5601 74.1918 13.8421C74.1918 13.9309 74.1709 14.0249 74.1291 14.1345C73.8419 14.8918 72.9489 15.4296 71.9306 15.4296ZM76.9595 15.4244C76.6253 15.4244 76.406 15.2103 76.406 14.8813V10.7244H75.0273C74.7819 10.7244 74.5991 10.5573 74.5991 10.2858C74.5991 10.0195 74.7819 9.83146 75.0273 9.83146H78.9074C79.1476 9.83146 79.3356 10.0195 79.3356 10.2858C79.3356 10.5573 79.1476 10.7244 78.9074 10.7244H77.5288V14.8813C77.5288 15.2103 77.299 15.4244 76.9595 15.4244ZM80.7613 17.3723C80.2391 17.3723 79.9519 17.1791 79.9519 16.8292C79.9519 16.589 80.119 16.4323 80.3905 16.4323C80.5106 16.4323 80.5524 16.4375 80.683 16.4375C80.9963 16.4375 81.3148 16.2652 81.5185 15.7012L81.623 15.3826L79.7847 10.573C79.743 10.4581 79.7221 10.3432 79.7221 10.2545C79.7221 9.94634 79.9675 9.73223 80.2965 9.73223C80.5785 9.73223 80.7404 9.85234 80.8396 10.1657L82.2392 14.3016H82.2548L83.6596 10.1657C83.7536 9.85757 83.9103 9.73223 84.1975 9.73223C84.5213 9.73223 84.7458 9.94634 84.7458 10.2492C84.7458 10.338 84.7249 10.4529 84.6884 10.5626L82.7823 15.602C82.2966 16.9232 81.7796 17.3723 80.7613 17.3723ZM86.1454 15.4244C85.8111 15.4244 85.5918 15.2103 85.5918 14.8813V10.4425C85.5918 10.0612 85.8111 9.83146 86.1767 9.83146H89.6912C90.0516 9.83146 90.2761 10.0612 90.2761 10.4425V14.8813C90.2761 15.2103 90.0568 15.4244 89.7173 15.4244C89.3831 15.4244 89.1481 15.2103 89.1481 14.8813V10.7244H86.7146V14.8813C86.7146 15.2103 86.4848 15.4244 86.1454 15.4244ZM92.0517 15.4244C91.7122 15.4244 91.4929 15.1894 91.4929 14.8291V10.3328C91.4929 9.96723 91.7122 9.73223 92.0517 9.73223C92.3911 9.73223 92.6156 9.96723 92.6156 10.3328V12.0457H95.1014V10.3328C95.1014 9.96723 95.3207 9.73223 95.6654 9.73223C96.0048 9.73223 96.2242 9.96723 96.2242 10.3328V14.8291C96.2242 15.1894 96.0048 15.4244 95.6654 15.4244C95.3207 15.4244 95.1014 15.1894 95.1014 14.8291V12.9334H92.6156V14.8291C92.6156 15.1894 92.3911 15.4244 92.0517 15.4244ZM99.8118 15.4296C98.2399 15.4296 97.206 14.3486 97.206 12.5783C97.206 10.8132 98.2452 9.73223 99.8118 9.73223C101.378 9.73223 102.418 10.8132 102.418 12.5783C102.418 14.3486 101.384 15.4296 99.8118 15.4296ZM99.8118 14.5001C100.7 14.5001 101.269 13.8003 101.269 12.5783C101.269 11.3616 100.694 10.6618 99.8118 10.6618C98.9293 10.6618 98.3548 11.3616 98.3548 12.5783C98.3548 13.8003 98.9293 14.5001 99.8118 14.5001ZM106.146 15.3252C105.781 15.3252 105.561 15.0954 105.561 14.7194V10.4425C105.561 10.0612 105.781 9.83146 106.146 9.83146H108.058C109.128 9.83146 109.776 10.3641 109.776 11.231C109.776 11.8002 109.368 12.3172 108.841 12.4164V12.4582C109.551 12.5522 110.021 13.0535 110.021 13.7429C110.021 14.709 109.28 15.3252 108.089 15.3252H106.146ZM106.674 12.0927H107.718C108.355 12.0927 108.674 11.8472 108.674 11.3616C108.674 10.9072 108.376 10.6513 107.828 10.6513H106.674V12.0927ZM106.674 14.5053H107.917C108.554 14.5053 108.898 14.2233 108.898 13.6959C108.898 13.1528 108.533 12.8812 107.791 12.8812H106.674V14.5053Z" fill="white"/>
</svg>
