<svg width="174" height="50" viewBox="0 0 174 50" fill="none" xmlns="http://www.w3.org/2000/svg">
<path d="M167.556 50H6.44444C2.90161 50 0 47.1859 0 43.75V6.25001C0 2.81407 2.90161 7.36664e-06 6.44444 7.36664e-06H167.556C171.098 7.36664e-06 174 2.81407 174 6.25001V43.75C174 47.1859 171.098 50 167.556 50Z" fill="white" fill-opacity="0.01"/>
<path d="M167.556 1.00157C170.539 1.00157 172.967 3.35626 172.967 6.25001V43.75C172.967 46.6438 170.539 48.9984 167.556 48.9984H6.44444C3.46067 48.9984 1.03272 46.6438 1.03272 43.75V6.25001C1.03272 3.35626 3.46067 1.00157 6.44444 1.00157H167.556ZM167.556 7.36664e-06H6.44444C2.90161 7.36664e-06 0 2.81407 0 6.25001V43.75C0 47.1859 2.90161 50 6.44444 50H167.556C171.098 50 174 47.1859 174 43.75V6.25001C174 2.81407 171.098 7.36664e-06 167.556 7.36664e-06Z" fill="white" fill-opacity="0.14"/>
<path d="M87.8184 27.1909C84.7911 27.1909 82.3181 29.4253 82.3181 32.5081C82.3181 35.5659 84.7911 37.8237 87.8184 37.8237C90.8521 37.8237 93.3252 35.5659 93.3252 32.5081C93.3252 29.4253 90.8521 27.1909 87.8184 27.1909ZM87.8184 35.73C86.1574 35.73 84.7283 34.4003 84.7283 32.5081C84.7283 30.5909 86.1574 29.2847 87.8184 29.2847C89.4795 29.2847 90.915 30.5909 90.915 32.5081C90.915 34.4003 89.4795 35.73 87.8184 35.73V35.73ZM75.8173 27.1909C72.7835 27.1909 70.3169 29.4253 70.3169 32.5081C70.3169 35.5659 72.7835 37.8237 75.8173 37.8237C78.8494 37.8237 81.3176 35.5659 81.3176 32.5081C81.3176 29.4253 78.8494 27.1909 75.8173 27.1909ZM75.8173 35.73C74.1546 35.73 72.7207 34.4003 72.7207 32.5081C72.7207 30.5909 74.1546 29.2847 75.8173 29.2847C77.4783 29.2847 78.9074 30.5909 78.9074 32.5081C78.9074 34.4003 77.4783 35.73 75.8173 35.73ZM61.5364 28.8206V31.08H67.0995C66.9368 32.3425 66.5018 33.2706 65.8348 33.9175C65.0228 34.6987 63.7581 35.5659 61.5364 35.5659C58.1128 35.5659 55.4319 32.8862 55.4319 29.5659C55.4319 26.2456 58.1128 23.5659 61.5364 23.5659C63.3875 23.5659 64.7344 24.2675 65.7285 25.1769L67.3702 23.5847C65.9798 22.2972 64.1303 21.3081 61.5364 21.3081C56.8416 21.3081 52.896 25.0128 52.896 29.5659C52.896 34.119 56.8416 37.8237 61.5364 37.8237C64.0739 37.8237 65.9798 37.0175 67.4782 35.505C69.0135 34.0159 69.492 31.9222 69.492 30.2315C69.492 29.7065 69.4469 29.2237 69.3664 28.8206H61.5364ZM119.933 30.5722C119.48 29.3831 118.083 27.1909 115.238 27.1909C112.418 27.1909 110.071 29.3456 110.071 32.5081C110.071 35.4862 112.394 37.8237 115.509 37.8237C118.027 37.8237 119.48 36.3347 120.078 35.4675L118.209 34.2597C117.585 35.144 116.736 35.73 115.509 35.73C114.289 35.73 113.414 35.1878 112.853 34.119L120.186 31.1769L119.933 30.5722V30.5722ZM112.457 32.3425C112.394 30.2925 114.099 29.2425 115.32 29.2425C116.277 29.2425 117.089 29.7065 117.36 30.3706L112.457 32.3425V32.3425ZM106.498 37.5003H108.908V21.8753H106.498V37.5003ZM102.55 28.3753H102.47C101.929 27.7534 100.896 27.1909 99.5876 27.1909C96.8423 27.1909 94.3321 29.5284 94.3321 32.5253C94.3321 35.505 96.8423 37.8237 99.5876 37.8237C100.896 37.8237 101.929 37.2565 102.47 36.6159H102.55V37.3784C102.55 39.4112 101.431 40.5034 99.6246 40.5034C98.1521 40.5034 97.2386 39.4722 96.8616 38.605L94.7655 39.4534C95.3697 40.8628 96.9695 42.5972 99.6246 42.5972C102.451 42.5972 104.835 40.9847 104.835 37.0612V27.5144H102.55V28.3753V28.3753ZM99.7938 35.73C98.1328 35.73 96.7424 34.3815 96.7424 32.5253C96.7424 30.6519 98.1328 29.2847 99.7938 29.2847C101.431 29.2847 102.721 30.6519 102.721 32.5253C102.721 34.3815 101.431 35.73 99.7938 35.73V35.73ZM131.217 21.8753H125.452V37.5003H127.856V31.58H131.217C133.887 31.58 136.505 29.7065 136.505 26.7269C136.505 23.7487 133.88 21.8753 131.217 21.8753V21.8753ZM131.28 29.4065H127.856V24.0487H131.28C133.075 24.0487 134.099 25.494 134.099 26.7269C134.099 27.9362 133.075 29.4065 131.28 29.4065ZM146.139 27.1612C144.402 27.1612 142.596 27.905 141.853 29.5534L143.987 30.4206C144.446 29.5534 145.29 29.2722 146.183 29.2722C147.43 29.2722 148.694 29.9987 148.714 31.2815V31.4456C148.279 31.2019 147.347 30.8409 146.202 30.8409C143.904 30.8409 141.563 32.0675 141.563 34.3565C141.563 36.4503 143.445 37.7987 145.561 37.7987C147.178 37.7987 148.071 37.0909 148.631 36.2675H148.714V37.4753H151.035V31.4815C151.035 28.7112 148.902 27.1612 146.139 27.1612ZM145.849 35.7237C145.063 35.7237 143.967 35.3456 143.967 34.4003C143.967 33.1909 145.333 32.7269 146.516 32.7269C147.575 32.7269 148.071 32.9534 148.714 33.2519C148.525 34.6987 147.241 35.7237 145.849 35.7237V35.7237ZM159.494 27.5034L156.73 34.2769H156.648L153.792 27.5034H151.2L155.492 36.969L153.043 42.2362H155.554L162.168 27.5034H159.494V27.5034ZM137.826 37.5003H140.236V21.8753H137.826V37.5003Z" fill="white"/>
<path d="M13.4493 9.42348C13.0707 9.80786 12.8516 10.4063 12.8516 11.1813V38.825C12.8516 39.6 13.0707 40.1985 13.4493 40.5829L13.5427 40.6672L29.5153 25.1829V24.8172L13.5427 9.33286L13.4493 9.42348Z" fill="url(#paint0_linear_410_3898)"/>
<path d="M34.8339 30.3469L29.5156 25.1829V24.8172L34.8403 19.6532L34.9596 19.7204L41.2655 23.2C43.0651 24.1875 43.0651 25.8125 41.2655 26.8063L34.9596 30.2797L34.8339 30.3469V30.3469Z" fill="url(#paint1_linear_410_3898)"/>
<path d="M34.9596 30.2796L29.5157 24.9999L13.4497 40.5827C14.0474 41.1921 15.0222 41.2655 16.1306 40.6562L34.9596 30.2796" fill="url(#paint2_linear_410_3898)"/>
<path d="M34.9596 19.7206L16.1306 9.344C15.0222 8.74087 14.0474 8.81431 13.4497 9.42368L29.5157 25.0002L34.9596 19.7206Z" fill="url(#paint3_linear_410_3898)"/>
<path d="M53.5165 16.3083V14.9225C53.5165 14.546 53.6943 14.3368 54.0133 14.3107H54.0813C54.599 14.0283 54.7872 13.4165 54.85 12.3549L55.0801 8.55839C55.1115 8.0616 55.4409 7.77921 55.9691 7.77921H59.4571C59.8231 7.77921 60.0428 8.0093 60.0428 8.38582V14.3107H60.4297C60.7696 14.3107 60.984 14.5408 60.984 14.9016V16.3083C60.984 16.6482 60.7801 16.8783 60.4506 16.8783C60.1212 16.8783 59.912 16.6482 59.912 16.3083V15.3252H54.5938V16.3083C54.5938 16.6482 54.3846 16.8783 54.0551 16.8783C53.7309 16.8783 53.5165 16.6482 53.5165 16.3083ZM55.42 14.3107H58.8714V8.78848H56.1678L55.9377 12.4072C55.8802 13.3746 55.7442 13.8819 55.42 14.2689V14.3107ZM64.2524 15.4298C62.6784 15.4298 61.6429 14.3473 61.6429 12.5745C61.6429 10.807 62.6836 9.72454 64.2524 9.72454C65.8212 9.72454 66.8619 10.807 66.8619 12.5745C66.8619 14.3473 65.8264 15.4298 64.2524 15.4298ZM64.2524 14.499C65.1414 14.499 65.7114 13.7982 65.7114 12.5745C65.7114 11.3561 65.1362 10.6554 64.2524 10.6554C63.3686 10.6554 62.7934 11.3561 62.7934 12.5745C62.7934 13.7982 63.3686 14.499 64.2524 14.499ZM70.1877 15.4298C68.6137 15.4298 67.5887 14.3368 67.5887 12.585C67.5887 10.8436 68.6085 9.72454 70.1773 9.72454C71.2388 9.72454 72.1488 10.2893 72.3893 11.058C72.4259 11.1469 72.4416 11.2411 72.4416 11.3195C72.4416 11.6071 72.2377 11.7849 71.9605 11.7849C71.7199 11.7849 71.584 11.6908 71.448 11.4398C71.1656 10.9168 70.7787 10.6658 70.2034 10.6658C69.3144 10.6658 68.7392 11.4032 68.7392 12.5745C68.7392 13.7721 69.3249 14.4833 70.1982 14.4833C70.81 14.4833 71.1813 14.2113 71.448 13.7355C71.6049 13.4635 71.7304 13.3694 71.971 13.3694C72.2481 13.3694 72.4521 13.5577 72.4521 13.8401C72.4521 13.929 72.4311 14.0231 72.3893 14.1329C72.1017 14.8912 71.2075 15.4298 70.1877 15.4298ZM75.2236 15.4246C74.8889 15.4246 74.6693 15.2101 74.6693 14.8807V10.7181H73.2888C73.043 10.7181 72.86 10.5508 72.86 10.2788C72.86 10.0122 73.043 9.82389 73.2888 9.82389H77.1742C77.4147 9.82389 77.603 10.0122 77.603 10.2788C77.603 10.5508 77.4147 10.7181 77.1742 10.7181H75.7936V14.8807C75.7936 15.2101 75.5635 15.4246 75.2236 15.4246ZM79.0306 17.3751C78.5077 17.3751 78.2201 17.1816 78.2201 16.8313C78.2201 16.5907 78.3874 16.4338 78.6593 16.4338C78.7796 16.4338 78.8214 16.4391 78.9522 16.4391C79.2659 16.4391 79.5849 16.2665 79.7889 15.7017L79.8935 15.3827L78.0527 10.5665C78.0109 10.4514 77.99 10.3364 77.99 10.2475C77.99 9.93894 78.2357 9.72454 78.5652 9.72454C78.8476 9.72454 79.0097 9.84481 79.1091 10.1586L80.5105 14.3002H80.5262L81.9329 10.1586C82.027 9.85004 82.1839 9.72454 82.4715 9.72454C82.7958 9.72454 83.0206 9.93894 83.0206 10.2422C83.0206 10.3311 82.9997 10.4462 82.9631 10.556L81.0544 15.6024C80.568 16.9254 80.0503 17.3751 79.0306 17.3751ZM84.4221 15.4246C84.0874 15.4246 83.8678 15.2101 83.8678 14.8807V10.4357C83.8678 10.054 84.0874 9.82389 84.4535 9.82389H87.9728C88.3337 9.82389 88.5585 10.054 88.5585 10.4357V14.8807C88.5585 15.2101 88.3389 15.4246 87.999 15.4246C87.6643 15.4246 87.429 15.2101 87.429 14.8807V10.7181H84.9921V14.8807C84.9921 15.2101 84.762 15.4246 84.4221 15.4246ZM90.3365 15.4246C89.9966 15.4246 89.777 15.1892 89.777 14.8284V10.3259C89.777 9.95986 89.9966 9.72454 90.3365 9.72454C90.6764 9.72454 90.9013 9.95986 90.9013 10.3259V12.0411H93.3905V10.3259C93.3905 9.95986 93.6101 9.72454 93.9552 9.72454C94.2952 9.72454 94.5148 9.95986 94.5148 10.3259V14.8284C94.5148 15.1892 94.2952 15.4246 93.9552 15.4246C93.6101 15.4246 93.3905 15.1892 93.3905 14.8284V12.9301H90.9013V14.8284C90.9013 15.1892 90.6764 15.4246 90.3365 15.4246ZM98.1074 15.4298C96.5333 15.4298 95.4979 14.3473 95.4979 12.5745C95.4979 10.807 96.5386 9.72454 98.1074 9.72454C99.6762 9.72454 100.717 10.807 100.717 12.5745C100.717 14.3473 99.6814 15.4298 98.1074 15.4298ZM98.1074 14.499C98.9964 14.499 99.5664 13.7982 99.5664 12.5745C99.5664 11.3561 98.9911 10.6554 98.1074 10.6554C97.2236 10.6554 96.6484 11.3561 96.6484 12.5745C96.6484 13.7982 97.2236 14.499 98.1074 14.499ZM104.451 15.3252C104.085 15.3252 103.865 15.0951 103.865 14.7186V10.4357C103.865 10.054 104.085 9.82389 104.451 9.82389H106.365C107.437 9.82389 108.085 10.3573 108.085 11.2254C108.085 11.7954 107.677 12.3131 107.149 12.4124V12.4543C107.86 12.5484 108.331 13.0504 108.331 13.7407C108.331 14.7081 107.588 15.3252 106.396 15.3252H104.451ZM104.979 12.0882H106.025C106.663 12.0882 106.982 11.8424 106.982 11.3561C106.982 10.9011 106.684 10.6449 106.134 10.6449H104.979V12.0882ZM104.979 14.5042H106.223C106.861 14.5042 107.206 14.2218 107.206 13.6936C107.206 13.1498 106.84 12.8778 106.098 12.8778H104.979V14.5042Z" fill="white"/>
<defs>
<linearGradient id="paint0_linear_410_3898" x1="28.0971" y1="39.1129" x2="7.12895" y2="17.4924" gradientUnits="userSpaceOnUse">
<stop stop-color="#00A0FF"/>
<stop offset="0.0066" stop-color="#00A1FF"/>
<stop offset="0.2601" stop-color="#00BEFF"/>
<stop offset="0.5122" stop-color="#00D2FF"/>
<stop offset="0.7604" stop-color="#00DFFF"/>
<stop offset="1" stop-color="#00E3FF"/>
</linearGradient>
<linearGradient id="paint1_linear_410_3898" x1="43.6088" y1="24.9983" x2="12.4217" y2="24.9983" gradientUnits="userSpaceOnUse">
<stop stop-color="#FFE000"/>
<stop offset="0.4087" stop-color="#FFBD00"/>
<stop offset="0.7754" stop-color="#FFA500"/>
<stop offset="1" stop-color="#FF9C00"/>
</linearGradient>
<linearGradient id="paint2_linear_410_3898" x1="31.9994" y1="22.1298" x2="3.56487" y2="-7.18937" gradientUnits="userSpaceOnUse">
<stop stop-color="#FF3A44"/>
<stop offset="1" stop-color="#C31162"/>
</linearGradient>
<linearGradient id="paint3_linear_410_3898" x1="9.40556" y1="49.78" x2="22.1029" y2="36.6878" gradientUnits="userSpaceOnUse">
<stop stop-color="#32A071"/>
<stop offset="0.0685" stop-color="#2DA771"/>
<stop offset="0.4762" stop-color="#15CF74"/>
<stop offset="0.8009" stop-color="#06E775"/>
<stop offset="1" stop-color="#00F076"/>
</linearGradient>
</defs>
</svg>
