<?xml version="1.0" encoding="UTF-8" standalone="no"?>
<!DOCTYPE svg PUBLIC "-//W3C//DTD SVG 1.1//EN" "http://www.w3.org/Graphics/SVG/1.1/DTD/svg11.dtd">
<svg xmlns="http://www.w3.org/2000/svg" version="1.1" viewBox="0.00 0.00 32.00 46.00">
<path fill="#fefefe" d="
  M 9.13 0.00
  L 10.98 0.00
  Q 13.93 1.29 13.97 5.24
  Q 14.02 9.88 14.01 14.70
  A 0.60 0.60 0.0 0 0 14.76 15.28
  Q 17.76 14.47 19.47 17.03
  Q 19.77 17.49 20.29 17.32
  Q 23.55 16.29 25.53 19.01
  Q 25.82 19.41 26.30 19.28
  Q 30.38 18.16 32.00 22.13
  L 32.00 31.99
  Q 29.60 43.68 17.87 46.00
  L 14.01 46.00
  Q 2.31 43.60 0.00 31.87
  L 0.00 19.78
  Q 0.84 15.27 5.40 16.32
  Q 5.91 16.43 5.93 15.91
  Q 6.13 10.08 6.10 4.25
  Q 6.09 0.81 9.13 0.00
  Z
  M 18.06 21.41
  L 17.97 18.55
  A 1.35 1.33 17.6 0 0 17.42 17.51
  Q 16.48 16.82 15.27 17.06
  Q 14.68 17.18 14.44 17.74
  L 13.70 19.50
  A 0.79 0.78 -47.3 0 1 12.28 19.56
  Q 11.82 18.68 11.87 17.49
  Q 12.16 10.54 11.88 3.50
  A 1.53 1.53 0.0 0 0 10.38 2.02
  L 9.99 2.01
  Q 7.96 1.97 7.96 4.01
  L 7.95 28.98
  Q 7.95 29.91 7.02 29.90
  L 6.72 29.90
  A 0.64 0.63 89.5 0 1 6.09 29.27
  L 5.96 19.82
  Q 5.94 17.95 4.07 18.01
  L 3.55 18.02
  A 1.52 1.51 -90.0 0 0 2.09 19.49
  C 1.81 29.14 0.65 36.86 8.75 42.05
  C 14.41 45.67 21.87 44.12 26.44 39.51
  C 30.80 35.10 30.04 28.17 29.99 22.52
  Q 29.98 21.97 29.56 21.62
  Q 28.53 20.78 27.14 21.05
  Q 26.65 21.15 26.47 21.61
  L 25.70 23.55
  A 0.40 0.39 78.2 0 1 25.61 23.69
  Q 25.18 24.09 24.65 23.97
  Q 24.08 23.84 24.06 23.26
  L 23.97 20.53
  A 1.30 1.29 -73.6 0 0 23.42 19.51
  Q 22.48 18.85 21.28 19.02
  Q 20.84 19.09 20.60 19.45
  Q 20.03 20.30 19.91 21.32
  Q 19.84 21.97 19.19 21.98
  L 18.66 21.99
  A 0.60 0.59 88.5 0 1 18.06 21.41
  Z"
/>
</svg>
