<svg width="95" height="30" viewBox="0 0 95 30" fill="none" xmlns="http://www.w3.org/2000/svg">
<g clip-path="url(#clip0_402_51)">
<path d="M81.8921 20.1015C81.9331 19.7291 81.9571 19.3529 81.9571 18.9721C81.9571 13.2059 77.157 8.53418 71.2349 8.53418C65.3145 8.53418 60.5151 13.2059 60.5151 18.9721C60.5151 24.7364 65.3146 29.4063 71.2349 29.4063C75.7387 29.4063 79.5886 26.7086 81.1799 22.8756L76.5586 22.0696C75.535 23.9345 73.5979 25.1907 71.3837 25.1907C68.4447 25.1907 66.0108 22.9902 65.5212 20.1014L81.8921 20.1015ZM71.3838 12.8661C73.8935 12.8661 76.037 14.475 76.9119 16.7524H65.8491C66.7216 14.4751 68.8699 12.8661 71.3838 12.8661Z" fill="#242424"/>
<path d="M57.6329 8.97119H52.1576V29.0313H57.6329V8.97119Z" fill="#242424"/>
<path d="M54.8978 0.791992C53.2076 0.791992 51.843 2.15781 51.843 3.83336C51.843 5.50633 53.2076 6.86852 54.8978 6.86852C56.5812 6.86852 57.9487 5.50633 57.9487 3.83336C57.9487 2.15781 56.5812 0.791992 54.8978 0.791992Z" fill="#242424"/>
<path d="M18.6462 2.53955V13.3385H6.84417V2.53955H0.859131V29.0135H6.84417V18.2141H18.6462V29.0135H24.6361V2.53955H18.6462Z" fill="#242424"/>
<path d="M43.3587 8.98078V10.0571C41.7673 9.09727 39.9024 8.5459 37.9041 8.5459C32.0996 8.5459 27.3918 13.2146 27.3918 18.9763C27.3918 24.7368 32.0996 29.4067 37.9041 29.4067C39.8505 29.4067 41.6689 28.8804 43.2323 27.9688V29.0139H48.5748V8.98078H43.3587ZM38.1711 25.009C34.7835 25.009 32.045 22.3105 32.045 18.9786C32.045 15.6439 34.7834 12.9435 38.1711 12.9435C41.5578 12.9435 44.3008 15.6439 44.3008 18.9786C44.3007 22.3105 41.5577 25.009 38.1711 25.009Z" fill="#242424"/>
<path d="M93.2781 7.1084C88.236 7.98402 84.4026 12.3509 84.3438 17.6177V29.0315H89.5863L89.5891 17.4031C89.5891 14.7411 91.5965 12.5441 94.1838 12.2289L93.2781 7.1084Z" fill="#242424"/>
</g>
<defs>
<clipPath id="clip0_402_51">
<rect width="95" height="30" fill="white"/>
</clipPath>
</defs>
</svg>
