<svg width="18" height="32" viewBox="0 0 18 32" fill="none" xmlns="http://www.w3.org/2000/svg">
<path d="M9.13029 0C4.7083 0 1.12366 3.71267 1.12366 8.29233C1.12366 12.8721 4.7083 16.585 9.13029 16.585C13.5523 16.585 17.1369 12.8721 17.1369 8.29233C17.1369 3.71267 13.5523 0 9.13029 0ZM9.13029 11.7204C7.30239 11.7204 5.82053 10.1856 5.82053 8.29245C5.82053 6.39933 7.30239 4.86459 9.13029 4.86459C10.9582 4.86459 12.4401 6.39933 12.4401 8.29245C12.4401 10.1856 10.9582 11.7204 9.13029 11.7204Z" fill="white"/>
<path d="M11.957 23.1833C15.1624 22.5071 17.0832 20.9349 17.1849 20.8506C18.1228 20.0715 18.2735 18.6525 17.5213 17.6809C16.7692 16.7095 15.3991 16.5534 14.4609 17.3324C14.4411 17.349 12.3924 18.9767 9.0216 18.979C5.65088 18.9767 3.55887 17.349 3.53905 17.3324C2.60087 16.5534 1.23083 16.7095 0.478727 17.6809C-0.273492 18.6525 -0.122818 20.0715 0.815135 20.8506C0.918143 20.9361 2.91825 22.5492 6.21347 23.2096L1.62098 28.1804C0.786376 29.0768 0.811469 30.5041 1.67701 31.3685C2.09947 31.7904 2.64395 32.0001 3.18798 32.0001C3.75836 32.0001 4.32816 31.7693 4.75532 31.3104L9.02171 26.6034L13.719 31.3409C14.5701 32.2209 15.9483 32.2195 16.7978 31.3384C17.6473 30.4571 17.6463 29.0296 16.7954 28.1498L11.957 23.1833Z" fill="white"/>
<path d="M9.022 18.979C9.0152 18.979 9.02865 18.9791 9.022 18.9793C9.01534 18.9791 9.0288 18.979 9.022 18.979Z" fill="white"/>
</svg>
