<svg width="107" height="28" viewBox="0 0 107 28" fill="none" xmlns="http://www.w3.org/2000/svg">
<mask id="mask0_430_939" style="mask-type:luminance" maskUnits="userSpaceOnUse" x="0" y="0" width="107" height="28">
<path d="M106.703 0.858887H0.776367V27.9618H106.703V0.858887Z" fill="white"/>
</mask>
<g mask="url(#mask0_430_939)">
<path d="M42.9569 7.04061L44.9319 5.56055H38.3389V14.4206H44.9319V12.9507H40.224V10.6799H44.2337V9.19992H40.224V7.04061H42.9569Z" fill="#21A038"/>
<path d="M33.3616 9.01741H31.0775V7.04061H34.728L36.693 5.56055H29.1924V14.4206H33.1222C35.3265 14.4206 36.5932 13.4069 36.5932 11.6328C36.5833 9.95005 35.4462 9.01741 33.3616 9.01741ZM33.0324 12.9507H31.0675V10.4975H33.0324C34.2293 10.4975 34.7779 10.9131 34.7779 11.7241C34.7879 12.5553 34.1995 12.9507 33.0324 12.9507Z" fill="#21A038"/>
<path d="M50.2684 5.56055H46.6777V14.4206H48.5628V11.9066H50.2684C52.5626 11.9066 53.9784 10.6799 53.9784 8.7234C53.9784 6.77704 52.5626 5.56055 50.2684 5.56055ZM50.2285 10.4367H48.5628V7.04061H50.2285C51.4354 7.04061 52.0938 7.64883 52.0938 8.74366C52.0938 9.83856 51.4354 10.4367 50.2285 10.4367Z" fill="#21A038"/>
<path d="M25.9608 12.5048C25.4621 12.7784 24.9035 12.9204 24.335 12.9204C22.6394 12.9204 21.4126 11.6938 21.4126 9.99066C21.4126 8.29771 22.6394 7.06095 24.335 7.06095C24.9434 7.05085 25.5519 7.24347 26.0506 7.60837L27.3971 6.59466L27.3073 6.5136C26.5194 5.81409 25.4621 5.43896 24.2652 5.43896C22.9585 5.43896 21.7716 5.88505 20.9338 6.69605C20.086 7.51714 19.6172 8.66268 19.6172 9.92986C19.6172 11.2071 20.086 12.3729 20.9338 13.2144C21.7816 14.0558 22.9686 14.5221 24.2652 14.5221C25.6217 14.5221 26.8086 14.0456 27.6066 13.1637L26.3897 12.2513L25.9608 12.5048Z" fill="#21A038"/>
<path d="M13.7623 5.47949C14.1015 5.92552 14.4007 6.42224 14.6301 6.9494L8.00724 11.9167L5.23438 10.1528V8.02397L8.00724 9.78787L13.7623 5.47949Z" fill="#21A038"/>
<path d="M2.42178 9.99039C2.42178 9.89917 2.42178 9.79784 2.43173 9.70661L0.756106 9.62549C0.746094 9.74714 0.746094 9.86874 0.746094 9.99039C0.746094 12.028 1.56397 13.8832 2.88062 15.2213L4.06755 14.015C3.04021 12.981 2.42178 11.5617 2.42178 9.99039Z" fill="url(#paint0_linear_430_939)"/>
<path d="M8.007 4.31343C8.0968 4.31343 8.19656 4.31343 8.2863 4.32357L8.36609 2.62049C8.24643 2.61035 8.12672 2.61035 8.007 2.61035C6.0022 2.61035 4.17694 3.44162 2.86035 4.77973L4.04727 5.98612C5.0646 4.94197 6.471 4.31343 8.007 4.31343Z" fill="url(#paint1_linear_430_939)"/>
<path d="M8.00747 15.6776C7.91767 15.6776 7.81797 15.6776 7.72817 15.6674L7.64844 17.3705C7.76809 17.3806 7.88781 17.3806 8.00747 17.3806C10.0123 17.3806 11.8376 16.5494 13.1542 15.2113L11.9673 14.0049C10.9499 15.0389 9.55348 15.6776 8.00747 15.6776Z" fill="url(#paint2_linear_430_939)"/>
<path d="M11.1597 5.29703L12.576 4.23259C11.3293 3.20871 9.74332 2.59033 8.00781 2.59033V4.29341C9.17477 4.31369 10.262 4.67865 11.1597 5.29703Z" fill="url(#paint3_linear_430_939)"/>
<path d="M15.279 9.99064C15.279 9.53445 15.239 9.09852 15.1593 8.6626L13.5933 9.83856C13.5933 9.88919 13.5933 9.93989 13.5933 9.99064C13.5933 11.6633 12.8852 13.1636 11.748 14.2078L12.8752 15.4749C14.3613 14.1267 15.279 12.1702 15.279 9.99064Z" fill="#21A038"/>
<path d="M8.00742 15.6776C6.36165 15.6776 4.88548 14.9579 3.85814 13.8022L2.61133 14.9478C3.93793 16.438 5.86294 17.3808 8.00742 17.3808V15.6776Z" fill="url(#paint4_linear_430_939)"/>
<path d="M4.25723 5.78331L3.13014 4.51611C1.66391 5.86437 0.736328 7.82089 0.736328 10.0005H2.41201C2.42196 8.32778 3.13014 6.81728 4.25723 5.78331Z" fill="url(#paint5_linear_430_939)"/>
<path d="M27.5072 19.55L24.7144 24.2537H23.9264L21.0638 19.6108V26.2001H19.5078V17.3501H21.4728L24.3553 22.1654L27.2179 17.3501H29.0631V26.2001H27.5072V19.55Z" fill="white"/>
<path d="M36.7629 22.3681H32.7532V24.7504H37.3513V26.2001H31.1973V17.3501H37.2217V18.7998H32.7532V20.9083H36.7629V22.3681Z" fill="white"/>
<path d="M45.0016 18.7998H40.6429V26.2001H39.0869V17.3501H44.9917V18.7998H45.0016Z" fill="white"/>
<path d="M53.0012 26.2001H51.3454L50.5075 24.1016H46.5179L45.7 26.2001H44.124L47.6549 17.3501H49.4204L53.0012 26.2001ZM49.939 22.652L48.5127 19.0228L47.0864 22.652H49.939Z" fill="white"/>
<path d="M62.1073 19.55L59.3046 24.2537H58.517L55.6544 19.6108V26.2001H54.0977V17.3501H56.0628L58.9456 22.1654L61.8186 17.3501H63.6635V26.2001H62.1073V19.55Z" fill="white"/>
<path d="M73.6379 26.2001H71.9823L71.1441 24.1016H67.1551L66.337 26.2001H64.7607L68.2918 17.3501H70.0568L73.6379 26.2001ZM70.5763 22.652L69.1496 19.0228L67.7229 22.652H70.5763Z" fill="white"/>
<path d="M76.3007 23.4427V26.2001H74.7451V17.3501H77.6474C79.0235 17.3501 80.021 17.6036 80.64 18.1003C81.2579 18.597 81.5674 19.3472 81.5674 20.3407C81.5674 21.3746 81.2377 22.1553 80.5698 22.6621C79.9013 23.1791 78.9337 23.4326 77.6474 23.4326L76.3007 23.4427ZM76.3007 18.7998V21.9829H77.7573C78.4856 21.9829 79.0338 21.8511 79.4026 21.5977C79.7719 21.3443 79.9514 20.9083 79.9514 20.3001C79.9514 19.7527 79.7817 19.3675 79.4429 19.1343C79.1034 18.9113 78.5552 18.7896 77.7872 18.7896L76.3007 18.7998Z" fill="white"/>
<path d="M84.7089 26.2001H83.1533V17.3501H84.7089V21.0705H86.0153L88.8181 17.3501H90.7131L87.392 21.5572L91.2521 26.2001H89.257L86.0953 22.3681H84.7192L84.7089 26.2001Z" fill="white"/>
<path d="M97.9155 22.3681H93.9058V24.7504H98.5034V26.2001H92.3496V17.3501H98.374V18.7998H93.9058V20.9083H97.9155V22.3681Z" fill="white"/>
<path d="M106.703 18.7998H103.77V26.2001H102.214V18.7998H99.332V17.3501H106.713L106.703 18.7998Z" fill="white"/>
</g>
<defs>
<linearGradient id="paint0_linear_430_939" x1="3.20779" y1="15.0061" x2="1.31831" y2="9.63223" gradientUnits="userSpaceOnUse">
<stop offset="0.1444" stop-color="#F2E913"/>
<stop offset="0.3037" stop-color="#E7E518"/>
<stop offset="0.5823" stop-color="#CADB26"/>
<stop offset="0.891" stop-color="#A3CD39"/>
</linearGradient>
<linearGradient id="paint1_linear_430_939" x1="3.34698" y1="5.06905" x2="8.09403" y2="3.28914" gradientUnits="userSpaceOnUse">
<stop offset="0.0592" stop-color="#0FA8E0"/>
<stop offset="0.5385" stop-color="#0099F9"/>
<stop offset="0.9234" stop-color="#0291EB"/>
</linearGradient>
<linearGradient id="paint2_linear_430_939" x1="7.5358" y1="16.3546" x2="12.8905" y2="15.1638" gradientUnits="userSpaceOnUse">
<stop offset="0.1226" stop-color="#A3CD39"/>
<stop offset="0.2846" stop-color="#86C339"/>
<stop offset="0.8693" stop-color="#21A038"/>
</linearGradient>
<linearGradient id="paint3_linear_430_939" x1="7.65879" y1="3.17471" x2="12.2425" y2="4.56626" gradientUnits="userSpaceOnUse">
<stop offset="0.0566" stop-color="#0291EB"/>
<stop offset="0.79" stop-color="#0C8ACB"/>
</linearGradient>
<linearGradient id="paint4_linear_430_939" x1="3.03855" y1="14.7449" x2="8.0337" y2="16.5812" gradientUnits="userSpaceOnUse">
<stop offset="0.1324" stop-color="#F2E913"/>
<stop offset="0.2977" stop-color="#EBE716"/>
<stop offset="0.5306" stop-color="#D9E01F"/>
<stop offset="0.8023" stop-color="#BBD62D"/>
<stop offset="0.9829" stop-color="#A3CD39"/>
</linearGradient>
<linearGradient id="paint5_linear_430_939" x1="1.36355" y1="10.2004" x2="3.41796" y2="4.94218" gradientUnits="userSpaceOnUse">
<stop offset="0.0698" stop-color="#A3CD39"/>
<stop offset="0.2599" stop-color="#81C55F"/>
<stop offset="0.9216" stop-color="#0FA8E0"/>
</linearGradient>
</defs>
</svg>
