<svg width="110" height="21" viewBox="0 0 110 21" fill="none" xmlns="http://www.w3.org/2000/svg">
<path d="M31.725 20.2655C37.1782 20.2655 41.5802 15.8635 41.5802 10.4103C41.5802 4.95715 37.1782 0.555176 31.725 0.555176C26.2718 0.555176 21.8699 4.95715 21.8699 10.4103C21.8042 15.8635 26.2718 20.2655 31.725 20.2655Z" fill="#FED42B"/>
<path d="M52.0917 17.6375H54.2599L57.282 6.40262V17.6375H59.7129V2.78906H56.3622L53.3401 13.6954L50.3178 2.78906H46.9014V17.6375H49.0038V6.40262L52.0917 17.6375ZM69.8966 10.279C69.8966 7.65094 68.5826 6.66542 65.8888 6.66542C64.1806 6.66542 62.8666 7.19103 62.0782 7.65094V9.75337C62.7352 9.22777 64.2463 8.70216 65.5603 8.70216C66.8086 8.70216 67.3343 9.16206 67.3343 10.279V10.8703H66.9401C63.0637 10.8703 61.2898 12.1843 61.2898 14.3524C61.2898 16.5206 62.6038 17.7689 64.5748 17.7689C66.0859 17.7689 66.7429 17.309 67.2029 16.7834H67.3343C67.3343 17.0462 67.4657 17.4404 67.5314 17.6375H70.028C69.9623 16.7834 69.8966 15.8636 69.8966 15.0095V10.279ZM67.3343 15.0752C67.0058 15.5351 66.4144 15.9293 65.4946 15.9293C64.4434 15.9293 63.9178 15.2723 63.9178 14.3524C63.9178 13.1041 64.7719 12.6442 67.0058 12.6442H67.4V15.0752H67.3343ZM74.2986 6.86253H71.9333V20.7254H74.4957V16.3892C75.1527 17.3747 76.0725 17.8346 77.1894 17.8346C79.6861 17.8346 81.3943 15.8636 81.3943 12.25C81.3943 8.63646 79.7518 6.66542 77.3208 6.66542C76.1382 6.66542 75.1527 7.19103 74.43 8.24225L74.2986 6.86253ZM76.4667 15.8636C75.1527 15.8636 74.43 14.7467 74.43 12.3157C74.43 9.81907 75.1527 8.70216 76.5981 8.70216C77.9778 8.70216 78.7005 9.81907 78.7005 12.25C78.7005 14.7467 77.9778 15.8636 76.4667 15.8636ZM89.3441 17.6375H92.235L88.1615 11.8558L91.775 6.86253H89.2127L85.5992 11.8558V6.86253H83.0368V17.6375H85.5992V12.3814L89.3441 17.6375ZM100.776 16.9148V14.8124C99.9877 15.338 98.6737 15.7979 97.4253 15.7979C95.5857 15.7979 94.863 14.9438 94.7316 13.1041H100.842V11.7244C100.842 7.97945 99.1993 6.59972 96.6369 6.59972C93.549 6.59972 92.0378 8.96496 92.0378 12.25C92.0378 15.995 93.8775 17.8346 97.0968 17.8346C98.8708 17.8346 100.053 17.4404 100.776 16.9148ZM96.6369 8.70216C97.8852 8.70216 98.2794 9.75337 98.2794 11.0674V11.2645H94.7316C94.7973 9.55627 95.4543 8.70216 96.6369 8.70216ZM109.974 8.89926V6.86253H101.433V8.89926H104.455V17.6375H107.018V8.89926H109.974Z" fill="white"/>
<path d="M10.6345 20.2655C16.0773 20.2655 20.4896 15.8532 20.4896 10.4103C20.4896 4.96746 16.0773 0.555176 10.6345 0.555176C5.19158 0.555176 0.779297 4.96746 0.779297 10.4103C0.779297 15.8532 5.19158 20.2655 10.6345 20.2655Z" fill="#FC3F1D"/>
<path d="M12.0798 6.07438H11.0943C9.38607 6.07438 8.53196 6.9285 8.53196 8.24252C8.53196 9.68794 9.12327 10.4107 10.3716 11.2648L11.3571 11.9875L8.53196 16.3894H6.23242L8.92616 12.3817C7.34934 11.2648 6.49523 10.2135 6.49523 8.37392C6.49523 6.07438 8.07205 4.49756 11.0943 4.49756H14.1165V16.3237H12.1455V6.07438H12.0798Z" fill="white"/>
<mask id="mask0_430_968" style="mask-type:luminance" maskUnits="userSpaceOnUse" x="21" y="0" width="21" height="21">
<path d="M31.725 20.2655C37.1782 20.2655 41.5802 15.8635 41.5802 10.4103C41.5802 4.95715 37.1782 0.555176 31.725 0.555176C26.2718 0.555176 21.8699 4.95715 21.8699 10.4103C21.8042 15.8635 26.2718 20.2655 31.725 20.2655Z" fill="white"/>
</mask>
<g mask="url(#mask0_430_968)">
<path d="M26.863 5.94277L18.1904 17.309L20.49 19.9371L26.9287 11.396L26.2717 16.0607L29.8852 17.309L34.2872 10.279C34.0901 11.5931 33.7616 14.6153 36.6524 15.5351C41.1858 16.9148 45.1279 8.76791 46.9675 4.62875L44.3394 3.24902C42.3027 7.51959 39.1491 12.2501 37.9007 11.9216C36.6524 11.5931 37.7693 7.58529 38.4921 5.02295V4.95725L34.4843 3.57753L29.6881 11.396L30.3451 7.12538L26.863 5.94277Z" fill="black"/>
</g>
</svg>
