<svg width="28" height="20" viewBox="0 0 28 20" fill="none" xmlns="http://www.w3.org/2000/svg">
<g clip-path="url(#clip0_357_137)">
<path fill-rule="evenodd" clip-rule="evenodd" d="M24.9391 0.597366C26.1446 0.926623 27.092 1.89323 27.4146 3.12324C27.9977 5.35042 28.0001 10 28.0001 10C28.0001 10 28.0001 14.6496 27.4146 16.8768C27.092 18.1068 26.1446 19.0734 24.9391 19.4026C22.7564 20 14 20 14 20C14 20 5.24367 20 3.06092 19.4026C1.85546 19.0734 0.908136 18.1068 0.585448 16.8768C0 14.6496 0 10 0 10C0 10 0 5.35042 0.585448 3.12324C0.908136 1.89323 1.85546 0.926623 3.06092 0.597366C5.24367 0 14 0 14 0C14 0 22.7564 0 24.9391 0.597366ZM18.4717 10.0004L11.1974 14.2854V5.71533L18.4717 10.0004Z" fill="white"/>
</g>
<defs>
<clipPath id="clip0_357_137">
<rect width="28" height="20" fill="white"/>
</clipPath>
</defs>
</svg>
